HIERARCHY
ROOT Hips
{
	OFFSET 0.00000 0.00000 0.00000
	CHANNELS 6 Xposition Yposition Zposition Yrotation Zrotation Xrotation 
	JOINT Lumbar
	{
		OFFSET 0 0 0
		CHANNELS 3 Zrotation Xrotation Yrotation
		JOINT Neck
		{
			OFFSET 0.00 0.2701 0.00
			CHANNELS 3 Zrotation Xrotation Yrotation
			End Site
			{
				OFFSET 0.00 0.1379 0.00
			}
		}
		JOINT RightShoulder
		{
			OFFSET 0.0119 0.2289 0.1181
			CHANNELS 3 Zrotation Xrotation Yrotation
			JOINT RightElbow
			{
				OFFSET 0.00 -0.1475 0.00
				CHANNELS 2 Zrotation Yrotation
				JOINT RightWrist
				{
					OFFSET 0.00 -0.1605 0.00
					CHANNELS 2 Zrotation Xrotation
					End Site
					{
						OFFSET 0.0040 -0.1068 0.0006
					}
				}
			}
		}
		JOINT LeftShoulder
		{
			OFFSET 0.0119 0.2289 -0.1181
			CHANNELS 3 Zrotation Xrotation Yrotation
			JOINT LeftElbow
			{
				OFFSET 0.00 -0.1475 0.00
				CHANNELS 2 Zrotation Yrotation
				JOINT LeftWrist
				{
					OFFSET 0.00 -0.1605 0.00
					CHANNELS 2 Zrotation Xrotation
					End Site
					{
						OFFSET 0.0040 -0.1068 -0.0006
					}
				}
			}
		}
	}
	JOINT RightHip
	{
		OFFSET 0.0316 -0.0424 0.0458
		CHANNELS 3 Zrotation Xrotation Yrotation
		JOINT RightKnee
		{
			OFFSET 0.00 -0.2438 0.00
			CHANNELS 1 Zrotation
			JOINT RightAnkle
			{
				OFFSET 0.00 -0.2449 0.00
				CHANNELS 3 Zrotation Xrotation Yrotation
				End Site
				{
					OFFSET 0.1237 -0.0542 0.0051
				}
			}
		}
	}
	JOINT LeftHip
	{
		OFFSET 0.0316 -0.0424 -0.0458
		CHANNELS 3 Zrotation Xrotation Yrotation
		JOINT LeftKnee
		{
			OFFSET 0.00 -0.2438 0.00
			CHANNELS 1 Zrotation
			JOINT LeftAnkle
			{
				OFFSET 0.00 -0.2449 0.00
				CHANNELS 3 Zrotation Xrotation Yrotation
				End Site
				{
					OFFSET 0.1237 -0.0542 -0.0051
				}
			}
		}
	}
}
MOTION
Frames: 11
Frame Time: 0.02
0.00093 -0.00033 -6e-05 -173.50694 -40.91244 -0.88567 45.10938 0.91497 -4.65147 15.12425 -1.26874 -0.7545 7.11333 -10.52002 24.67718 34.38638 88.99061 7.74202 -0.45732 13.66575 11.33669 -23.24519 40.52657 -96.03995 6.02281 -4.52027 44.30907 -0.71474 -9.31191 -19.81939 -6.52129 -2.87253 -3.622 49.04377 2.90264 1.89942 -25.27128 -6.68955 1.78344 3.09375
0.00044 -0.00037 0.00012 -173.47314 -40.99463 -0.91252 45.2373 0.93609 -4.75561 14.55381 -1.23903 -0.75702 4.56935 -10.77458 21.75028 33.84527 89.2724 7.60771 -0.28407 10.20398 11.52979 -21.86151 40.49255 -94.77454 5.64915 -3.90745 44.31047 -0.75722 -9.5927 -19.78771 -6.51465 -2.83954 -3.60285 49.06878 2.98707 2.22812 -25.2723 -6.69289 1.75368 3.08002
-5e-05 -0.0004 0.00031 -173.4396 -41.07667 -0.93933 45.36487 0.9572 -4.85928 13.98451 -1.20941 -0.75953 2.03052 -11.02908 18.83156 33.30618 89.55424 7.4745 -0.11131 6.74976 11.72268 -20.48113 40.45883 -93.51646 5.27816 -3.29749 44.31201 -0.79954 -9.87251 -19.75607 -6.50804 -2.80661 -3.58374 49.09383 3.07126 2.55591 -25.27329 -6.69623 1.72401 3.06633
-0.00054 -0.00043 0.00049 -173.40593 -41.15862 -0.9661 45.4924 0.97826 -4.96308 13.41572 -1.17979 -0.76205 -0.50613 -11.28298 15.91352 32.76681 89.83535 7.34074 0.06142 3.29804 11.9154 -19.10198 40.42495 -92.25528 4.90585 -2.68669 44.31341 -0.84188 -10.15241 -19.72447 -6.50142 -2.77372 -3.56465 49.11877 3.15543 2.8836 -25.2743 -6.69956 1.69434 3.05264
-0.00103 -0.00047 0.00068 -173.37194 -41.24068 -0.99291 45.62026 0.99931 -5.06739 12.84603 -1.15006 -0.76456 -3.04675 -11.53666 12.98767 32.22525 90.11598 7.20557 0.23462 -0.1598 12.10774 -17.71873 40.39069 -90.98608 4.53044 -2.07274 44.31464 -0.88438 -10.43333 -19.69287 -6.49475 -2.74077 -3.54551 49.14364 3.23983 3.21218 -25.27535 -6.70287 1.66459 3.03891
-0.00152 -0.0005 0.00086 -173.33936 -41.32269 -1.01969 45.74719 1.02056 -5.1697 12.27759 -1.12068 -0.76708 -5.58154 -11.79286 10.08412 31.69139 90.40029 7.07644 0.40643 -3.60603 12.30154 -16.3438 40.35808 -89.75176 4.16882 -1.47122 44.31685 -0.92631 -10.71078 -19.66114 -6.48828 -2.7079 -3.52649 49.16907 3.32359 3.53833 -25.27619 -6.70629 1.6351 3.02532
-0.00202 -0.00053 0.00105 -173.30395 -41.40469 -1.0465 45.87587 1.04138 -5.27596 11.70724 -1.09063 -0.76959 -8.12562 -12.04373 7.13891 31.14271 90.6771 6.93548 0.58085 -7.07238 12.49333 -14.95679 40.32223 -88.44716 3.77954 -0.84524 44.31703 -0.96934 -10.99488 -19.62968 -6.48141 -2.6749 -3.50724 49.19329 3.40853 3.86892 -25.27745 -6.70949 1.60511 3.01145
-0.00251 -0.00057 0.00123 -173.27121 -41.48673 -1.07329 46.00293 1.06261 -5.37851 11.13871 -1.06122 -0.77211 -10.66049 -12.29947 4.23213 30.60754 90.96042 6.80509 0.75286 -10.51915 12.68491 -13.5752 40.28929 -87.21003 3.41633 -0.24199 44.31919 -1.01138 -11.27293 -19.59801 -6.47492 -2.64203 -3.48821 49.21873 3.49241 4.19555 -25.27835 -6.71289 1.57558 2.99784
-0.00298 -0.0006 0.00141 -173.24151 -41.56875 -1.10005 46.12806 1.0843 -5.47679 10.57183 -1.0325 -0.77462 -13.18824 -12.56157 1.3709 30.08937 91.2536 6.68902 0.92204 -13.9481 12.88456 -12.22218 40.26022 -86.04489 3.08289 0.33423 44.32333 -1.05213 -11.54336 -19.56592 -6.46887 -2.60926 -3.46944 49.24528 3.57491 4.51696 -25.27871 -6.71654 1.5466 2.98453
-0.00354 -0.00065 0.00161 -173.19367 -41.65068 -1.12697 46.26446 1.10321 -5.60043 9.9937 -0.99951 -0.77715 -15.7695 -12.78834 -1.75679 29.47481 91.4958 6.4948 1.10783 -17.49813 13.06281 -10.77066 40.20986 -84.43406 2.57186 1.06825 44.31476 -1.10008 -11.85694 -19.53573 -6.46021 -2.57575 -3.44915 49.2643 3.66512 4.8673 -25.28187 -6.71876 1.51444 2.96948
-0.0039 -0.00065 0.00176 -173.18451 -41.73293 -1.15352 46.37695 1.12809 -5.67007 9.44054 -0.97571 -0.77966 -18.22937 -13.08873 -4.31919 29.0627 91.84177 6.46269 1.25834 -20.78024 13.27016 -9.48508 40.20377 -83.7834 2.43943 1.46793 44.33387 -1.13296 -12.07992 -19.50189 -6.45709 -2.54389 -3.43206 49.29993 3.73919 5.15727 -25.27929 -6.72401 1.489 2.95809
